<svg xmlns="http://www.w3.org/2000/svg" width="164" height="44" viewBox="0 0 164 44">
  <g fill="none" fill-rule="evenodd">
    <polygon fill="#FFF" points="19 0 38 11 38 33 19 44 0 33 0 11"/>
    <g transform="translate(2 2)">
      <g transform="translate(0 10.01)">
        <polygon fill="#407FB2" points="6.599 3.781 0 10.01 0 0"/>
        <path fill="#366E9F" d="M6.59879336,3.78137008 C6.59788229,6.58665313 6.59788229,8.66269945 6.59879336,10.009509 L0,10.009509 L6.59879336,3.78137008 Z"/>
        <polygon fill="#25425F" points="6.599 13.791 0 20.019 0 10.01" transform="matrix(1 0 0 -1 0 30.029)"/>
        <path fill="#2E5B81" d="M6.59879336,10.009509 C6.59788229,12.8147921 6.59788229,14.8908384 6.59879336,16.237648 L0,16.237648 L6.59879336,10.009509 Z" transform="matrix(1 0 0 -1 0 26.247)"/>
      </g>
      <g transform="matrix(-1 0 0 1 35.042 10.01)">
        <polygon fill="#A6D1E1" points="6.599 3.781 0 10.01 0 0"/>
        <path fill="#7CBEDA" d="M6.59879336,3.78137008 C6.59788229,6.58665313 6.59788229,8.66269945 6.59879336,10.009509 L0,10.009509 L6.59879336,3.78137008 Z"/>
        <polygon fill="#4891BF" points="6.599 13.791 0 20.019 0 10.01" transform="matrix(1 0 0 -1 0 30.029)"/>
        <path fill="#58A6CC" d="M6.59879336,10.009509 C6.59788229,12.8147921 6.59788229,14.8908384 6.59879336,16.237648 L0,16.237648 L6.59879336,10.009509 Z" transform="matrix(1 0 0 -1 0 26.247)"/>
      </g>
      <polygon fill="#4891BF" points="8.76 5.005 6.599 13.791 0 10.01"/>
      <polygon fill="#A6D1E1" points="17.521 0 17.521 7.563 8.76 5.005"/>
      <polygon fill="#7CBEDA" points="17.521 7.563 12.06 10.677 8.76 5.005"/>
      <polygon fill="#58A6CC" points="6.599 13.791 8.76 5.005 12.06 10.677"/>
      <g transform="translate(17.52)">
        <polygon fill="#407FB2" points="17.521 5.005 15.359 13.791 8.76 10.01" transform="matrix(-1 0 0 1 26.281 0)"/>
        <polygon fill="#25425F" points="8.76 0 8.76 7.563 0 5.005" transform="matrix(-1 0 0 1 8.76 0)"/>
        <polygon fill="#2E5B81" points="8.76 7.563 3.299 10.677 0 5.005" transform="matrix(-1 0 0 1 8.76 0)"/>
        <polygon fill="#366E9F" points="5.461 13.791 7.623 5.005 10.922 10.677" transform="matrix(-1 0 0 1 16.383 0)"/>
      </g>
      <g transform="matrix(1 0 0 -1 0 40.038)">
        <polygon fill="#A6D1E1" points="8.76 5.005 6.599 13.791 0 10.01"/>
        <polygon fill="#4891BF" points="17.521 0 17.521 7.563 8.76 5.005"/>
        <polygon fill="#58A6CC" points="17.521 7.563 12.06 10.677 8.76 5.005"/>
        <polygon fill="#7CBEDA" points="6.599 13.791 8.76 5.005 12.06 10.677"/>
      </g>
      <g transform="matrix(1 0 0 -1 17.52 40.038)">
        <polygon fill="#407FB2" points="17.521 5.005 15.359 13.791 8.76 10.01" transform="matrix(-1 0 0 1 26.281 0)"/>
        <polygon fill="#25425F" points="8.76 0 8.76 7.563 0 5.005" transform="matrix(-1 0 0 1 8.76 0)"/>
        <polygon fill="#2E5B81" points="8.76 7.563 3.299 10.677 0 5.005" transform="matrix(-1 0 0 1 8.76 0)"/>
        <polygon fill="#366E9F" points="5.461 13.791 7.623 5.005 10.922 10.677" transform="matrix(-1 0 0 1 16.383 0)"/>
      </g>
      <g transform="translate(10.695 14.013)">
        <polygon fill="#407FB2" points="6.826 0 13.653 10.566 6.826 6.703"/>
        <polygon fill="#25425F" points="0 0 6.826 10.566 0 6.703" transform="matrix(-1 0 0 1 6.826 0)"/>
      </g>
    </g>
    <path fill="#FFF" stroke="#FFF" stroke-width=".5" d="M58,9.43333333 L59.4138093,9.43333333 C61.5400138,9.43333333 63.4086345,10.2277698 65.0197276,11.8166667 C66.6308206,13.4055635 67.4363551,15.2722115 67.4363551,17.4166667 C67.4363551,19.5611218 66.6143812,21.4222143 64.9704086,23 C63.3264361,24.5777857 61.5619321,25.3666667 59.6768436,25.3666667 L59.4466886,25.3666667 L67.9295444,34.4333333 L66.5157351,34.4333333 L59.0521372,26.5 L59.0521372,34.4333333 L58,34.4333333 L58,9.43333333 Z M59.0521372,24.4 L59.6439643,24.4 C61.4194546,24.4 62.9866849,23.711118 64.3457022,22.3333333 C65.7047195,20.9555487 66.3842179,19.3222317 66.3842179,17.4333333 C66.3842179,15.544435 65.6828002,13.900007 64.2799436,12.5 C62.8770871,11.099993 61.2769778,10.4 59.4795679,10.4 L59.0521372,10.4 L59.0521372,24.4 Z M84.4020667,30.9666667 C81.9141883,28.3666537 80.6702677,25.3277952 80.6702677,21.85 C80.6702677,18.3722048 81.9306278,15.3611238 84.4513856,12.8166667 C86.9721435,10.2722095 89.9970076,9 93.5260686,9 C97.0551296,9 100.069034,10.266654 102.567872,12.8 C105.06671,15.333346 106.316111,18.3499825 106.316111,21.85 C106.316111,25.3500175 105.07767,28.3944315 102.600752,30.9833333 C100.123833,33.5722352 97.1647268,34.8666667 93.7233443,34.8666667 L93.230155,34.8666667 C89.8326118,34.8666667 86.8899451,33.5666797 84.4020667,30.9666667 Z M101.795209,13.4833333 C99.5046073,11.1388772 96.7427749,9.96666667 93.5096289,9.96666667 C90.276483,9.96666667 87.5091707,11.1388772 85.2076092,13.4833333 C82.9060477,15.8277895 81.7552842,18.6388725 81.7552842,21.9166667 C81.7552842,25.1944608 82.9060477,28.0110993 85.2076092,30.3666667 C87.5091707,32.722234 90.2710031,33.9 93.4931893,33.9 C96.7153754,33.9 99.4772078,32.722234 101.778769,30.3666667 C104.080331,28.0110993 105.231094,25.1944608 105.231094,21.9166667 C105.231094,18.6388725 104.085811,15.8277895 101.795209,13.4833333 Z M128.493189,35 L116.229216,9.43333333 L117.41287,9.43333333 L128.591827,32.6 L139.705026,9.43333333 L140.757163,9.43333333 L128.493189,35 Z M154.155472,9.43333333 L163,9.43333333 L163,10.4 L155.240488,10.4 L155.240488,24 L161.717708,24 L161.717708,24.9666667 L155.240488,24.9666667 L155.240488,33.4666667 L163,33.4666667 L163,34.4333333 L154.155472,34.4333333 L154.155472,9.43333333 Z"/>
  </g>
</svg>
