<svg xmlns="http://www.w3.org/2000/svg" width="164" height="44" viewBox="0 0 164 44">
  <g fill="none" fill-rule="evenodd">
    <polygon fill="#FFF" points="19 0 38 11 38 33 19 44 0 33 0 11"/>
    <g transform="translate(1.5 2.172)">
      <g transform="translate(0 10.01)">
        <polygon fill="#407FB2" points="6.599 3.781 0 10.01 0 0"/>
        <path fill="#366E9F" d="M6.59879336,3.78137008 C6.59788229,6.58665313 6.59788229,8.66269945 6.59879336,10.009509 L0,10.009509 L6.59879336,3.78137008 Z"/>
        <polygon fill="#25425F" points="6.599 13.791 0 20.019 0 10.01" transform="matrix(1 0 0 -1 0 30.029)"/>
        <path fill="#2E5B81" d="M6.59879336,10.009509 C6.59788229,12.8147921 6.59788229,14.8908384 6.59879336,16.237648 L0,16.237648 L6.59879336,10.009509 Z" transform="matrix(1 0 0 -1 0 26.247)"/>
      </g>
      <g transform="matrix(-1 0 0 1 35.042 10.01)">
        <polygon fill="#A6D1E1" points="6.599 3.781 0 10.01 0 0"/>
        <path fill="#7CBEDA" d="M6.59879336,3.78137008 C6.59788229,6.58665313 6.59788229,8.66269945 6.59879336,10.009509 L0,10.009509 L6.59879336,3.78137008 Z"/>
        <polygon fill="#4891BF" points="6.599 13.791 0 20.019 0 10.01" transform="matrix(1 0 0 -1 0 30.029)"/>
        <path fill="#58A6CC" d="M6.59879336,10.009509 C6.59788229,12.8147921 6.59788229,14.8908384 6.59879336,16.237648 L0,16.237648 L6.59879336,10.009509 Z" transform="matrix(1 0 0 -1 0 26.247)"/>
      </g>
      <polygon fill="#4891BF" points="8.76 5.005 6.599 13.791 0 10.01"/>
      <polygon fill="#A6D1E1" points="17.521 0 17.521 7.563 8.76 5.005"/>
      <polygon fill="#7CBEDA" points="17.521 7.563 12.06 10.677 8.76 5.005"/>
      <polygon fill="#58A6CC" points="6.599 13.791 8.76 5.005 12.06 10.677"/>
      <g transform="translate(17.52)">
        <polygon fill="#407FB2" points="17.521 5.005 15.359 13.791 8.76 10.01" transform="matrix(-1 0 0 1 26.281 0)"/>
        <polygon fill="#25425F" points="8.76 0 8.76 7.563 0 5.005" transform="matrix(-1 0 0 1 8.76 0)"/>
        <polygon fill="#2E5B81" points="8.76 7.563 3.299 10.677 0 5.005" transform="matrix(-1 0 0 1 8.76 0)"/>
        <polygon fill="#366E9F" points="5.461 13.791 7.623 5.005 10.922 10.677" transform="matrix(-1 0 0 1 16.383 0)"/>
      </g>
      <g transform="matrix(1 0 0 -1 0 40.038)">
        <polygon fill="#A6D1E1" points="8.76 5.005 6.599 13.791 0 10.01"/>
        <polygon fill="#4891BF" points="17.521 0 17.521 7.563 8.76 5.005"/>
        <polygon fill="#58A6CC" points="17.521 7.563 12.06 10.677 8.76 5.005"/>
        <polygon fill="#7CBEDA" points="6.599 13.791 8.76 5.005 12.06 10.677"/>
      </g>
      <g transform="matrix(1 0 0 -1 17.52 40.038)">
        <polygon fill="#407FB2" points="17.521 5.005 15.359 13.791 8.76 10.01" transform="matrix(-1 0 0 1 26.281 0)"/>
        <polygon fill="#25425F" points="8.76 0 8.76 7.563 0 5.005" transform="matrix(-1 0 0 1 8.76 0)"/>
        <polygon fill="#2E5B81" points="8.76 7.563 3.299 10.677 0 5.005" transform="matrix(-1 0 0 1 8.76 0)"/>
        <polygon fill="#366E9F" points="5.461 13.791 7.623 5.005 10.922 10.677" transform="matrix(-1 0 0 1 16.383 0)"/>
      </g>
      <g transform="translate(10.695 14.013)">
        <polygon fill="#407FB2" points="6.826 0 13.653 10.566 6.826 6.703"/>
        <polygon fill="#25425F" points="0 0 6.826 10.566 0 6.703" transform="matrix(-1 0 0 1 6.826 0)"/>
      </g>
    </g>
    <path fill="#000" stroke="#000" stroke-width=".5" d="M58,9.5 L59.4202612,9.5 C61.5561686,9.5 63.4333168,10.290222 65.051762,11.8706897 C66.6702073,13.4511573 67.4794178,15.3079027 67.4794178,17.4409814 C67.4794178,19.5740602 66.6536928,21.4252795 65.002218,22.994695 C63.3507433,24.5641104 61.5781869,25.3488064 59.6844959,25.3488064 L59.4532905,25.3488064 L67.9748578,34.367374 L66.5545966,34.367374 L59.0569386,26.4761273 L59.0569386,34.367374 L58,34.367374 L58,9.5 Z M59.0569386,24.3872679 L59.6514665,24.3872679 C61.4350593,24.3872679 63.0094416,23.7020405 64.3746608,22.331565 C65.7398799,20.9610895 66.4224793,19.3364373 66.4224793,17.4575597 C66.4224793,15.578682 65.7178606,13.9429778 64.3086021,12.5503979 C62.8993436,11.157818 61.2919323,10.4615385 59.4863199,10.4615385 L59.0569386,10.4615385 L59.0569386,24.3872679 Z M84.5225523,30.9190981 C82.0233205,28.3328783 80.7737233,25.3101411 80.7737233,21.8507958 C80.7737233,18.3914504 82.039835,15.3963433 84.5720963,12.8653846 C87.1043576,10.3344259 90.1430257,9.06896552 93.6881915,9.06896552 C97.2333574,9.06896552 100.261016,10.3288999 102.771257,12.8488064 C105.281499,15.3687129 106.536601,18.369346 106.536601,21.8507958 C106.536601,25.3322455 105.292509,28.3605088 102.804287,30.9356764 C100.316065,33.510844 97.3434547,34.7984085 93.8863675,34.7984085 L93.3909275,34.7984085 C89.9778797,34.7984085 87.0217842,33.505318 84.5225523,30.9190981 Z M101.995068,13.5285146 C99.6940132,11.1964959 96.9195772,10.030504 93.6716768,10.030504 C90.4237764,10.030504 87.6438356,11.1964959 85.3317709,13.5285146 C83.0197062,15.8605333 81.8636912,18.6567034 81.8636912,21.9171088 C81.8636912,25.1775141 83.0197062,27.9792102 85.3317709,30.3222812 C87.6438356,32.6653521 90.4182716,33.83687 93.6551622,33.83687 C96.8920527,33.83687 99.6664888,32.6653521 101.978553,30.3222812 C104.290618,27.9792102 105.446633,25.1775141 105.446633,21.9171088 C105.446633,18.6567034 104.296123,15.8605333 101.995068,13.5285146 Z M128.814884,34.9310345 L116.494944,9.5 L117.684,9.5 L128.913972,32.5437666 L140.077886,9.5 L141.134825,9.5 L128.814884,34.9310345 Z M154.594277,9.5 L163.479167,9.5 L163.479167,10.4615385 L155.684245,10.4615385 L155.684245,23.9893899 L162.191023,23.9893899 L162.191023,24.9509284 L155.684245,24.9509284 L155.684245,33.4058355 L163.479167,33.4058355 L163.479167,34.367374 L154.594277,34.367374 L154.594277,9.5 Z"/>
  </g>
</svg>
