<svg xmlns="http://www.w3.org/2000/svg" xmlns:xlink="http://www.w3.org/1999/xlink" width="340" height="120" viewBox="0 0 340 120">
  <defs>
    <filter id="freeduration-a" width="120.7%" height="185.7%" x="-10.3%" y="-42.9%" filterUnits="objectBoundingBox">
      <feGaussianBlur in="SourceGraphic" stdDeviation="10"/>
    </filter>
    <rect id="freeduration-b" width="320" height="70" rx="2"/>
  </defs>
  <g fill="none" fill-rule="evenodd" transform="translate(10 15)">
    <rect width="290" height="70" x="15" y="10" fill="#000" filter="url(#freeduration-a)" opacity=".6" rx="2"/>
    <use fill="#EDF6F9" xlink:href="#freeduration-b"/>
    <rect width="319" height="69" x=".5" y=".5" stroke="#EDF6F9" rx="2"/>
    <path fill="#58A6CC" d="M0,64 L320,64 L320,68 C320,69.1045695 319.104569,70 318,70 L2,70 C0.8954305,70 1.3527075e-16,69.1045695 0,68 L0,64 Z" opacity=".3"/>
    <path fill="#58A6CC" d="M0,64 L222,64 L222,70 L2.00414362,70 C0.897285661,70 0,69.1017394 0,68.0020869 L0,64 Z"/>
    <text fill="#2E5B81" font-family="Nunito-Regular, Nunito" font-size="16">
      <tspan x="60" y="26">Free duration left</tspan>
    </text>
    <path fill="#25425F" d="M36.25,32.625 L37.5,32.625 L37.5,31.375 L36.25,31.375 L36.25,32.625 Z M30,40.75 C25.1675,40.75 21.25,36.8325 21.25,32 C21.25,27.168125 25.1675,23.25 30,23.25 C34.8325,23.25 38.75,27.168125 38.75,32 C38.75,36.8325 34.8325,40.75 30,40.75 L30,40.75 Z M30,22 C24.476875,22 20,26.4775 20,32 C20,37.523125 24.476875,42 30,42 C35.523125,42 40,37.523125 40,32 C40,26.4775 35.523125,22 30,22 L30,22 Z M33.7975,27.170625 L34.6625,28.0375 L35.5275,27.170625 L34.6625,26.304375 L33.7975,27.170625 L33.7975,27.170625 Z M33.614375,36.23625 L34.498125,37.12 L35.381875,36.23625 L34.498125,35.3525 L33.614375,36.23625 L33.614375,36.23625 Z M30,24.5 C29.655,24.5 29.375,24.779375 29.375,25.125 L29.375,31.389375 L24.375,31.389375 C24.029375,31.389375 23.75,31.67 23.75,32.015 C23.75,32.36 24.029375,32.639375 24.375,32.639375 L30,32.639375 C30.345625,32.639375 30.625,32.36 30.625,32.015 L30.625,25.125 C30.625,24.779375 30.345625,24.5 30,24.5 L30,24.5 Z M26.0575,27.201875 L25.17375,26.318125 L24.29,27.201875 L25.17375,28.085625 L26.0575,27.201875 L26.0575,27.201875 Z M24.208125,36.27 L25.073125,37.136875 L25.938125,36.27 L25.073125,35.403125 L24.208125,36.27 L24.208125,36.27 Z M29.375,39.5 L30.625,39.5 L30.625,38.25 L29.375,38.25 L29.375,39.5 Z" opacity=".564"/>
    <text fill="#2E5B81" font-family="Nunito-Black, Nunito" font-size="16" font-weight="700">
      <tspan x="60" y="48">10 mins</tspan>
    </text>
  </g>
</svg>
