<svg xmlns="http://www.w3.org/2000/svg" width="316" height="619" viewBox="0 0 316 619">
  <defs>
    <filter id="phonebody-a" width="111.6%" height="446.7%" x="-5.8%" y="-173.4%" filterUnits="objectBoundingBox">
      <feGaussianBlur in="SourceGraphic" stdDeviation="5.778"/>
    </filter>
  </defs>
  <g fill="none" fill-rule="evenodd" transform="translate(8)">
    <path fill="#25425F" d="M150,605 C232.842712,605 248.378723,602.865851 300,600 C248.049832,597.235784 232.842712,595 150,595 C67.1572875,595 38.269759,597.377761 0,600 C37.6946818,602.350339 67.1572875,605 150,605 Z" filter="url(#phonebody-a)" opacity=".4"/>
    <path fill="#25425F" d="M7,553 C7,566.016032 16.0868319,572.459377 20,574 C27.4229526,577.789827 37.2382543,578.708526 55,580 C68.7442672,580.950502 109.780582,585 148,585 L150,585 C190.038793,584.96141 229.430216,581.688698 244,580 C259.143922,578.500636 272.037716,576.503896 280,573 C283.372608,571.173447 292,565.393607 292,553 L292,541 L292,41 C292,41.0003915 292,37.8882656 292,27 C292,19.4744391 284.949935,13.1568235 281,12 C273.613815,7.82761908 264.218642,5.04537852 247,4 C232.712629,2.80464787 193.826099,0.0373455109 154,0 L146,0 C106.913384,0 66.2873707,2.80464787 52,4 C34.7813578,5.04537852 27.0642457,6.92261287 19,11 C15.7293534,12.2530621 7,17.9706597 7,27 C7,33.5312894 7,41.0003915 7,41 L7,539 C7,538.940537 7,542.132333 7,553 Z"/>
    <path fill="#FFF" d="M157 28C157 24.1335652 153.866435 21 150 21 146.134783 21 143 24.1335652 143 28 143 31.8652174 146.134783 35 150 35 153.866435 35 157 31.8652174 157 28M57 30C57 28.5672896 55.4329791 27 54 27 51.5670209 27 50 28.5672896 50 30 50 32.4327104 51.5670209 34 54 34 55.4329791 34 57 32.4327104 57 30" opacity=".4"/>
    <polygon fill="#25425F" points="5 112 7 112 7 203 5 203"/>
    <polygon fill="#25425F" points="292 75 294 75 294 112 292 112"/>
  </g>
</svg>
